<svg width="0" height="0" class="hidden">
  <symbol xmlns="http://www.w3.org/2000/svg" viewBox="0 0 973.199 973.199" id="archive">
    <path d="M924 828.75V315.649c-3.6.3-7.199.5-10.801.5H60c-3.6 0-7.3-.2-10.8-.5V828.75c0 33.1 26.9 60 60 60H864c33.1 0 60-26.801 60-60zm-237-315.4c0 16.6-13.4 30-30 30H316.2c-16.6 0-30-13.4-30-30v-79.6c0-16.601 13.4-30 30-30h340.7c16.6 0 30 13.399 30 30v79.6h.1zm286.199-317.201v-51.7c0-33.1-26.898-60-60-60H60c-33.1 0-60 26.9-60 60v51.7c0 29.4 21.2 53.9 49.2 59 3.5.6 7.1 1 10.8 1h853.1c3.701 0 7.301-.4 10.801-1 28.099-5.1 49.298-29.6 49.298-59z"></path>
  </symbol>
  <symbol xmlns="http://www.w3.org/2000/svg" viewBox="0 0 459 459" id="bin">
    <path d="M76.5 408c0 28.05 22.95 51 51 51h204c28.05 0 51-22.95 51-51V102h-306v306zM408 25.5h-89.25L293.25 0h-127.5l-25.5 25.5H51v51h357v-51z"></path>
  </symbol>
  <symbol xmlns="http://www.w3.org/2000/svg" viewBox="0 0 40 40" id="idea">
    <path d="M22.746 31.173h-5.538a.912.912 0 01-.912-.912v-.641c.006-.551-.021-.938-.079-1.154-.311-1.139-1.134-2.094-1.931-3.02a23.085 23.085 0 01-.739-.883 8.114 8.114 0 01-1.757-5.061c0-4.526 3.684-8.207 8.21-8.207 4.525 0 8.208 3.681 8.208 8.207a8.097 8.097 0 01-1.757 5.063c-.201.258-.433.528-.675.813-.816.96-1.727 2.031-2.041 3.162-.055.202-.082.565-.078 1.073v.646a.912.912 0 01-.911.914zm-4.624-1.826h3.712c.01-.71.079-1.06.142-1.288.423-1.523 1.471-2.76 2.396-3.846.243-.286.456-.536.645-.774a6.309 6.309 0 001.366-3.936c0-3.52-2.862-6.384-6.382-6.384s-6.384 2.864-6.384 6.384c0 1.438.472 2.798 1.366 3.934.211.27.442.535.687.818.843.979 1.888 2.192 2.31 3.733.062.241.134.608.142 1.359zm4.624 4.241h-5.538a.912.912 0 010-1.825h5.538a.912.912 0 010 1.825zM21.362 36h-2.769a.913.913 0 110-1.826h2.769a.914.914 0 010 1.826zm13.23-15.585h-3.648a.913.913 0 110-1.824h3.648a.91.91 0 01.911.912.91.91 0 01-.911.912zm-25.535 0H5.408a.91.91 0 01-.911-.912.91.91 0 01.911-.912h3.648a.911.911 0 11.001 1.824zM20 9.474a.912.912 0 01-.914-.912v-3.65a.913.913 0 011.826 0v3.649a.911.911 0 01-.912.913zm10.314 21.259a.908.908 0 01-.644-.268l-2.579-2.58a.913.913 0 111.29-1.289l2.579 2.579a.913.913 0 01-.646 1.558zM12.26 12.679a.914.914 0 01-.646-.268L9.037 9.833a.914.914 0 011.29-1.293l2.579 2.579a.913.913 0 01-.646 1.56zM9.682 30.733a.913.913 0 01-.645-1.558l2.581-2.581a.91.91 0 011.288 0 .914.914 0 010 1.293l-2.579 2.58a.91.91 0 01-.645.266zm18.056-18.054a.913.913 0 01-.646-1.558l2.579-2.579a.913.913 0 111.29 1.289l-2.577 2.578a.908.908 0 01-.646.27z"></path>
  </symbol>
  <symbol xmlns="http://www.w3.org/2000/svg" viewBox="0 0 512 512" id="pencil">
    <path d="M70.2 337.4l104.4 104.4L441.5 175 337 70.5 70.2 337.4zM.6 499.8c-2.3 9.3 2.3 13.9 11.6 11.6L151.4 465 47 360.6.6 499.8zM487.9 24.1c-46.3-46.4-92.8-11.6-92.8-11.6-7.6 5.8-34.8 34.8-34.8 34.8l104.4 104.4s28.9-27.2 34.8-34.8c0 0 34.8-46.3-11.6-92.8z"></path>
  </symbol>
  <symbol xmlns="http://www.w3.org/2000/svg" viewBox="0 0 24 24" id="task">
    <path fill="none" d="M0 0h24v24H0z"></path>
    <path d="M21 2.992v18.016a1 1 0 01-.993.992H3.993A.993.993 0 013 21.008V2.992A1 1 0 013.993 2h16.014c.548 0 .993.444.993.992zM19 4H5v16h14V4zm-7.707 9.121l4.243-4.242 1.414 1.414-5.657 5.657-3.89-3.89 1.415-1.414 2.475 2.475z"></path>
  </symbol>
  <symbol xmlns="http://www.w3.org/2000/svg" viewBox="0 0 128 128" id="thought">
    <path d="M70.744.967a47.732 47.732 0 00-48.542 47.754c0 .232 0 1.575.01 3.68a9.8 9.8 0 01-2.74 3.75c-.475.475-1.254 1.218-2.113 2.042-3.062 2.954-4.235 4.1-4.727 4.7a10.903 10.903 0 00-2.015 3.554c-.671 2.06-.689 4.996 3.053 7.323a28.639 28.639 0 003.08 1.62c.77.359 1.549.699 2.328 1.03l.098.045c1.236 8.165 3.196 21.039 3.313 21.863a11.605 11.605 0 003.41 7.502c3.304 3.017 7.718 2.9 10.95 2.802.492-.009.985-.027 1.441-.027h3.895c.134 1.844.286 4.199.42 6.276.17 2.552.34 5.139.484 7.162a5.363 5.363 0 005.345 4.996 5.203 5.203 0 001.047-.108l51.54-10.25a7.27 7.27 0 005.838-7.1v-9.365a81.984 81.984 0 016.974-32.587A47.775 47.775 0 0070.743.967zm16.902 49.83a4.577 4.577 0 01-2.515 2.122c-.475.162-13.76 3.537-13.76 3.537l6.24 16.679a4.578 4.578 0 11-7.736 4.897l-17.1-26.993a4.577 4.577 0 012.776-6.893c.35-.09 13.518-2.99 13.518-2.99l-6.4-17.109a4.58 4.58 0 017.734-4.906l17.1 27.001a4.534 4.534 0 01.707 2.444 4.615 4.615 0 01-.564 2.212z" ></path>
  </symbol>
</svg>